<?xml version="1.0" encoding="UTF-8"?>
<!-- Created with Inkscape (http://www.inkscape.org/) -->
<svg width="360" height="800" version="1.1" viewBox="0 0 95.25 211.67" xmlns="http://www.w3.org/2000/svg" xmlns:xlink="http://www.w3.org/1999/xlink">
 <defs>
  <linearGradient id="linearGradient410866" x1="1388" x2="1388" y1="244.93" y2="1.3038" gradientTransform="translate(832.73)" gradientUnits="userSpaceOnUse">
   <stop stop-color="#bc5090" offset="0"/>
   <stop stop-color="#ffbb3c" offset="1"/>
  </linearGradient>
 </defs>
 <g transform="translate(-34.49 -36.201)">
  <g transform="matrix(.26458 0 0 .26458 -185.84 36.201)">
   <rect x="832.73" width="360" height="700" fill="url(#linearGradient410866)"/>
   <polygon transform="matrix(.45705 0 0 .45705 767.23 94.345)" points="319.59 701.62 319.9 699.67 318.82 701.5" fill="#247aa1" stroke-width="4.7871"/>
   <g transform="matrix(1 0 0 .74591 832.73 161.73)" stroke-width="1.1579">
    <rect x="-8.2054e-7" y="319.43" width="360" height="536.26" rx="0" ry="0" fill="#494085" stop-color="#000000"/>
   </g>
   <g transform="translate(0,46)">
    <path transform="translate(832.73)" d="m21.463 94.346c-10.576 11.357-15.065 17.944-21.463 26.027v116c2.9131 0.0694 5.8102-0.69082 8.3203-2.2598-0.15669 3.2381 3.9266 5.0244 6.7617 4.1074-1.3398 21.195-0.46546 50.565 0.7832 81.32-5.4546-2.2141-10.693-4.9376-15.865-7.8105v172.02c15.134 4.4342 30.824 5.0048 46.961 5.5078 62.967 1.9679 125.99-0.4147 188.63-7.1309 30.862-3.2938 61.562-7.6154 92.098-12.963 10.809-1.8916 21.554-4.0916 32.309-6.2461v-110.75c-14.799-4.1998-29.597-8.2662-44.395-14.092v-43.262c0.8978 0.45498 1.8581 0.77422 2.8496 0.94727 6.9024 1.2252 15.231 1.9684 19.723-3.4141 5.1695 5.2125 14.644 5.1142 19.783-0.0801-0.5059 0.89614 0.26681 2.405 1.4121 2.6426 0.21363 0.0443 0.41566-0.0746 0.62695-0.0801v-24.248c-1.8365-1.238-3.3335-2.2479-5.1387-3.4648-5.1978-3.504-4.6902-11.172 0.80664-14.186 0.1118-0.0613 0.22062-0.12397 0.32812-0.18945 0.2754-1.3193 0.55263-2.6377 0.82813-3.957 0.8122 0.84362 2.0171 1.1837 3.1758 1.0664v-7.2812c-3.9314-7.2022-8.6752-13.937-14.209-20.016-3.1362-3.462-3.1932-8.7208-0.13282-12.25 0.027-0.031 0.0541-0.0624 0.0801-0.0937 3.9252-1.3256 7.6421-3.2025 11.039-5.5742-11.65-18.718-33.864-33.588-39.145-54.994-15.886 17.059-17.669 23.068-33.555 40.127 0 0-15.042 13.573-18.289 20.867 0.7977 0.83795 7.9404 2.8485 8.2148 4.4961 5.4466 0.43663 14.881-5.5332 14.881-5.5332s-20.595 21.958-26.848 35.482c-0.5631 1.2179-1.0986 2.6072-0.62695 3.8633 0.3766 1.0028 1.7295 1.582 2.5996 1.1836-1.0401 1.0026-1.8753 2.198-2.459 3.5195 3.7355 2.3851 8.6201 1.8929 11.805-1.1895-0.871 1.6272-1.7404 3.2537-2.6113 4.8809v4e-3c5.1519 1.6827 6.6058 8.2779 2.6387 11.971-5.4047 5.0266-10.343 10.31-12.152 13.789-1.7024 3.2733 15.776 7.2204 19.707 7.0586 3.9316-0.1618 7.6073-1.8905 11.158-3.5859-0.173 1.6193 0.13683 3.2537 0.89063 4.6973 3.9279 0.9531 8.0744 0.28281 11.502-1.8594-0.1567 3.2381 3.9286 5.0264 6.7637 4.1094-0.758 11.992-0.78604 26.679-0.46484 42.656-5.8366-2.2978-11.675-4.5946-17.512-6.8926-34.402-13.542-69.975-27.305-106.93-26.295-27.556 0.75413-54.116 9.6948-80.854 16.404-26.737 6.7095-55.243 11.169-81.592 3.0566-1.51-0.46485-2.9836-1.0186-4.4629-1.5566v-81.387c0.89778 0.45498 1.8581 0.77422 2.8496 0.94727 6.9024 1.2252 15.233 1.9704 19.725-3.4121 5.1694 5.2125 14.642 5.1142 19.781-0.0801-0.50582 0.89614 0.26883 2.405 1.4141 2.6426 1.3496 0.28002 2.6627-0.52301 3.8086-1.2891l15.562-10.404c-6.4014-4.3153-15.496-10.444-23.885-16.1-5.1979-3.504-4.6902-11.172 0.80664-14.186 0.11185-0.0613 0.22258-0.12397 0.33008-0.18946 0.27547-1.3193 0.55068-2.6397 0.82617-3.959 1.6216 1.6842 4.8112 1.3677 6.0684-0.60352-4.3836-9.3503-10.148-17.988-17.1-25.625-3.1362-3.462-3.1932-8.7208-0.13281-12.25 0.0266-0.031 0.05203-0.0624 0.07813-0.0937 3.9259-1.3255 7.6434-3.2023 11.041-5.5742-11.65-18.718-33.866-33.589-39.147-54.994z" fill="#494085" stroke-width="2.1879"/>
    <g transform="translate(1208.3 -112.2)" stroke-width="1.1202">
     <path d="m-226.49 364.91 1.6965 0.86952c0.0158 8e-3 0.0346 0.01 0.0524 4e-3 0.0168-6e-3 0.0316-0.0178 0.0395-0.0336 8e-3 -0.0158 0.01-0.0346 4e-3 -0.0524-5e-3 -0.0168-0.0178-0.0316-0.0336-0.0395l-1.6965-0.86951c-9e-3 -4e-3 -0.0168-7e-3 -0.0257-8e-3 -9e-3 0-0.0188 9.8e-4 -0.0267 3e-3 -9e-3 3e-3 -0.0168 8e-3 -0.0237 0.0128-7e-3 6e-3 -0.0128 0.0129-0.0168 0.0217-4e-3 8e-3 -6e-3 0.0158-7e-3 0.0257-9.8e-4 9e-3 0 0.0178 3e-3 0.0257 3e-3 9e-3 7e-3 0.0168 0.0128 0.0237 6e-3 7e-3 0.0138 0.0119 0.0217 0.0168z" fill="#fff"/>
     <path d="m-226.72 364.76c-0.0296 0-0.0543-0.0247-0.0543-0.0543 0-0.0306 0.0247-0.0543 0.0543-0.0543 0.0306 0 0.0543 0.0237 0.0543 0.0543 0 0.0296-0.0237 0.0543-0.0543 0.0543z" fill="#fff"/>
     <path d="m-228.34 363.61 0.61558 0.3152c0.0543 0.0287 0.0958 0.0771 0.11461 0.13635 0.0198 0.0583 0.0138 0.12252-0.0138 0.17687-0.0573 0.11264-0.0682 0.24307-0.0296 0.36361 0.0395 0.11956 0.12351 0.21936 0.23615 0.27667l3.0077 1.5424c0.11264 0.0573 0.24307 0.0672 0.36361 0.0286 0.11956-0.0385 0.21936-0.12351 0.27667-0.23516 0.0286-0.0553 0.0771-0.0968 0.13635-0.1156 0.0583-0.0188 0.12252-0.0138 0.17687 0.0138l0.54245 0.27864c0.25098 0.12845 0.44069 0.35175 0.52764 0.62051 0.086 0.26876 0.0632 0.56123-0.0652 0.81319l-7.1142 13.893c-0.12845 0.25097-0.35175 0.44068-0.62051 0.52764-0.26876 0.086-0.56123 0.0632-0.81221-0.0652l-5.4265-2.7814c-0.25097-0.12845-0.44068-0.35175-0.52763-0.62051-0.086-0.26876-0.0632-0.56123 0.0652-0.81319l7.1142-13.893c0.12845-0.25097 0.35175-0.44068 0.62051-0.52763 0.26876-0.086 0.56123-0.0632 0.8122 0.0652z" fill="#494085"/>
     <g fill="#ff6361">
      <path d="m-230.34 378.32c-0.54937-0.0573-1.08-0.23418-1.5533-0.51875-0.47428-0.28456-0.87939-0.66992-1.1887-1.1274-0.30927-0.45847-0.5138-0.97919-0.59977-1.5256-0.086-0.54542-0.0514-1.1037 0.10178-1.6353l-10.976-7.7456 6.4986-2.5473 9.4263 7.7456c0.87446 0.31618 1.6037 0.94263 2.0473 1.7598 0.44464 0.81813 0.57407 1.7706 0.36361 2.6767-0.21145 0.90706-0.74699 1.7044-1.5058 2.242-0.75984 0.5385-1.6896 0.77861-2.6145 0.67585z"/>
      <path d="m-284.27 291.28c0 2.3388 0.69314 4.6252 1.9919 6.5698 1.2987 1.9436 3.1446 3.4593 5.3043 4.3545 2.1596 0.8952 4.5361 1.1294 6.8288 0.67288 2.2927-0.45649 4.3987-1.5819 6.0513-3.236 1.6531-1.654 2.7795-3.7606 3.235-6.054 0.45649-2.2943 0.22232-4.6716-0.67288-6.8326-0.89422-2.1599-2.409-4.0067-4.3528-5.306-1.9436-1.2993-4.2288-1.993-6.5664-1.993-3.1269-8e-3 -6.1288 1.2272-8.3453 3.4336-2.2165 2.2064-3.4661 5.2032-3.4739 8.3315-1e-4 0.0198-1e-4 0.0395 0 0.0593z"/>
      <path d="m-156.18 360.83c0.48811 0.0978 0.99104 0.0879 1.4742-0.0296 0.48317-0.11758 0.93473-0.33891 1.323-0.65016 0.38832-0.31125 0.70352-0.70351 0.92386-1.1501 0.22034-0.44562 0.3399-0.93472 0.35077-1.4327l25.708-24.207-5.7842-4.6163-23.495 25.308c-0.8369 0.0366-1.6303 0.37943-2.2311 0.96338-0.60076 0.58396-0.96734 1.3675-1.0286 2.2034-0.0623 0.83493 0.18477 1.6639 0.69364 2.3299 0.50787 0.66597 1.243 1.1215 2.0651 1.2815z"/>
      <path d="m-304.34 383.36c-0.24861-0.49404-0.38595-1.0365-0.40245-1.5888s0.0883-1.1017 0.3071-1.6096c0.21876-0.50788 0.54601-0.96141 0.95893-1.329 0.41292-0.36658 0.90123-0.63929 1.4307-0.79738l0.58909-13.425 5.6527 4.0966-1.4261 12.12c0.20661 0.90804 0.0733 1.8596-0.37468 2.6757-0.448 0.81517-1.1795 1.4386-2.0559 1.7509-0.87633 0.31223-1.8368 0.29148-2.6992-0.0573-0.8625-0.34879-1.5671-1.0019-1.9802-1.8359z"/>
     </g>
     <g>
      <g fill="#494085">
       <path d="m-232.32 368.04c0.0287 0.0148 0.0623 0.0168 0.0929 7e-3 0.0316-0.01 0.0573-0.0316 0.0721-0.0603l1.0928-2.1342c7e-3 -0.0148 0.0119-0.0306 0.0129-0.0464 2e-3 -0.0158 0-0.0326-5e-3 -0.0474-5e-3 -0.0158-0.0128-0.0296-0.0237-0.0425-0.01-0.0118-0.0227-0.0217-0.0376-0.0296-0.0138-7e-3 -0.0296-0.0119-0.0454-0.0129-0.0168-9.8e-4 -0.0326 0-0.0484 5e-3 -0.0148 6e-3 -0.0297 0.0138-0.0415 0.0237-0.0119 0.0109-0.0227 0.0237-0.0297 0.0376l-1.0928 2.1352c-0.0148 0.0286-0.0178 0.0623-8e-3 0.0929 0.01 0.0316 0.0326 0.0573 0.0613 0.0721z"/>
       <path d="m-287.65 470.82 18.22-9.9e-4v-0.23121c-1e-4 -1.8813-0.74739-3.6856-2.0773-5.0165-1.3299-1.33-3.1337-2.0779-5.0145-2.0779h-4e-4l-3.3282-2.5255-6.2096 2.5255-1.5905 9.9e-4z"/>
       <path d="m-250.97 470.82 18.032-2.6076-0.0326-0.22825c-0.26975-1.8625-1.2667-3.5413-2.7735-4.6687-1.5068-1.1264-3.399-1.6076-5.2596-1.3388h-9.9e-4l-3.6549-2.0236-5.7842 3.3891-1.575 0.22726z"/>
       <path d="m-294.7 381.3c3.0862-0.77169 6.1723-1.5434 9.2585-2.3151 4.9192-1.2302 9.8383-2.4603 14.757-3.6915l3.3878-0.84678c0.0909-0.0237 0.18616-0.0247 0.27736-3e-3 0.077 0.0148 0.14979 0.0464 0.21332 0.0919 0.0634 0.0454 0.1161 0.10473 0.15405 0.17291 0.76013 1.2677 1.5203 2.5354 2.2804 3.8021l5.3791 8.9698c2.0957 3.4948 4.1914 6.9887 6.2872 10.483l5.0017 8.3394c0.44562 0.74304 0.89125 1.4861 1.3369 2.2291 0.18576 0.249 0.30729 0.53949 0.35373 0.8458 0.15316 1.7133 0.26382 3.4306 0.39622 5.1449 0.2658 3.4603 0.53159 6.9205 0.79837 10.381l0.93967 12.226c0.27468 3.5709 0.54937 7.1418 0.82406 10.713 0.14623 1.903 0.29247 3.8061 0.43871 5.7091l0.0207 0.26678c-2e-3 0.1245-0.0435 0.24603-0.11857 0.34484-0.0751 0.0998-0.18082 0.17193-0.30137 0.20651l-8.9787 2.9939-1.2974 0.43278c-0.14624 0.0395-0.30137 0.0198-0.43278-0.0553-0.1324-0.0741-0.22825-0.19761-0.26975-0.34385-0.58889-3.5383-1.1788-7.0776-1.7687-10.616l-2.8457-17.083c-0.14821-0.89125-0.29642-1.7825-0.44562-2.6738-0.10078-0.44563-0.17687-0.89718-0.22528-1.3517-0.18181-0.21639-0.33101-0.45748-0.44365-0.71537-0.55135-1.0681-0.67486-2.3052-0.34484-3.4603l0.0454-0.14426c6e-3 -0.0198 0.0109-0.0346 0.0148-0.0504-0.0415-0.25097-0.083-0.50194-0.1245-0.75193-0.12351-0.7381-0.24603-1.4762-0.36954-2.2143-0.0978-0.59087-0.19663-1.1817-0.29445-1.7726-5e-3 -0.0286-0.0138-0.0603-0.0208-0.0929 0.0356 0.0267 0.0761 0.0445 0.11857 0.0543-0.0217-5e-3 -0.0494-0.0534-0.0672-0.0672-0.0208-0.0168-0.0395-0.0366-0.0603-0.0534-4e-3 -0.0178-6e-3 -0.0366-6e-3 -0.0543 5e-3 -0.1077-0.0524-0.0682-0.0533 9.9e-4 -0.3735-0.32607-0.71043-0.72328-1.0572-1.0701-1.7726-1.7736-3.5455-3.5472-5.3184-5.3208-3.1967-3.1984-6.3934-6.3968-9.5901-9.5943v49.723c0 2.3477 0.0769 4.7102 0 7.0569-1e-3 0.0336 0 0.0662 0 0.0988-2e-3 0.15117-0.063 0.29543-0.16956 0.40215-0.10661 0.10671-0.25058 0.16698-0.40136 0.16896h-10.276c-0.15029-3e-3 -0.29337-0.0642-0.39968-0.17094-0.10632-0.10671-0.16768-0.24999-0.17124-0.40017l-0.37794-4.1588c-0.28743-3.1628-0.57486-6.3267-0.8623-9.4895-0.31322-3.4464-0.62634-6.8928-0.93946-10.339l-0.60945-6.7061c-0.0148-0.16304-0.0415-0.33299-0.0475-0.49898-0.0228-0.0553-0.0475-0.11759-0.0614-0.14723-0.0942-0.20255-0.18843-0.40511-0.28269-0.60668-0.49572-1.0642-0.86042-2.1184-0.72071-3.316 0.0369-0.34089 0.1078-0.67684 0.21175-1.0029 0.0569-0.1739 0.1247-0.34385 0.19811-0.51183 0.0387-0.0879 0.0786-0.17884 0.1246-0.26382 1e-4 -8e-3 -3e-4 -0.0148-1e-3 -0.0217-0.15977-0.85766-0.16155-1.7776-0.2404-2.6461-0.14337-1.577-0.28664-3.155-0.43001-4.7329l-0.86398-9.5073-0.31836-3.5028-0.86931-9.5666c-0.24021-2.6441-0.48051-5.2882-0.72071-7.9313-0.0134-0.14821-0.0268-0.29544-0.0402-0.44266 2.9e-4 -0.12549 0.0414-0.24702 0.11708-0.34583 0.0757-0.0998 0.18171-0.17193 0.30206-0.20552z"/>
       <path d="m-260.67 275.39c-1.3843-2.9781-4.064-2.3892-6.4071-1.3804-2.9675-0.65806-5.7898-2.6293-8.987-1.4634-3.1495 4.5827-13.724 3.234-11.474 10.695 3e-3 1.7874-3.3625 0.74699-2.775 3.6747-1.7828 5.635 6.4351 16.306 11.153 14.058-1.1667-2.1392-3.8321-6.9976 0.21046-7.4798 8.6961 8.0954 0.89728-15.415 11.824-8.5775 3.6174 3.312 8.5706-6.214 6.4561-9.5271z"/>
       <path d="m-141.89 462.82h-20.267v-0.2569c0-2.0928 0.83098-4.1005 2.3101-5.5797 1.4792-1.4801 3.486-2.3121 5.5777-2.3121h9.9e-4l12.379 9.9e-4z"/>
       <path d="m-91.646 462.82h-20.267v-0.2569c0-2.0928 0.83098-4.1005 2.3101-5.5797 1.4792-1.4801 3.486-2.3121 5.5777-2.3121h9.9e-4l12.378 9.9e-4z"/>
       <path d="m-110.16 350.13 6.3356-23.419-8.2198-4.6222h-11.473l-4.4622 4.7764s-7.4551 5.1894-5.6508 10.939l2.9109 13.096-4.4523 20.799-22.431 31.122-5.31 30.57 20.903 5.4819 22.602-44.526 10.96 49.302 20.388-1.0256-7.0262-59.779s-2.0019-18.21-12.5-29.581z"/>
       <path d="m-130.61 315.43v-9.867c0-3.5067 1.3922-6.8701 3.8713-9.3492 2.4781-2.4801 5.8396-3.8733 9.3453-3.8733 3.5047 0 6.8662 1.3932 9.3453 3.8733 2.4781 2.4791 3.8703 5.8425 3.8703 9.3492v9.867c0 0.47132-0.18773 0.92287-0.51973 1.2558-0.33298 0.33299-0.78453 0.51973-1.2549 0.52072h-22.882c-0.47132-9.9e-4 -0.92188-0.18773-1.2549-0.52072-0.33299-0.33298-0.51973-0.78453-0.52072-1.2558z"/>
       <path d="m-121.06 318.32c-0.19564-0.2658-0.31224-0.58001-0.33694-0.90904s0.0435-0.65806 0.19762-0.94954c2.0908-3.977 5.0175-11.327 1.1323-15.86l-0.27864-0.32607h11.278v16.94l-10.245 1.8092c-0.10375 0.0178-0.20848 0.0277-0.31421 0.0277-0.27962 0-0.5553-0.0662-0.80429-0.19367-0.249-0.12746-0.4644-0.31223-0.62842-0.5385z"/>
      </g>
      <path d="m-168.89 347.47 8.0756-1.8704c0.3903-0.0909 0.79936-0.0455 1.16 0.12747 0.36065 0.17291 0.65115 0.46341 0.82505 0.82406l8.2732 17.163c0.0899 0.18675 0.13734 0.39128 0.13932 0.59878 3e-3 0.2075-0.0405 0.41401-0.12549 0.60273-0.085 0.18971-0.21046 0.35769-0.36657 0.49404-0.15711 0.13636-0.34188 0.23615-0.54147 0.29346l-8.207 2.3329c-0.4397 0.12549-0.91003 0.086-1.3221-0.11066-0.41301-0.19564-0.74007-0.53554-0.92089-0.95548l-5.2783-12.266-0.16105 0.0889-1.0049-2.324 0.16698-0.086c-0.17291-1.0335-2.8062-4.4266-0.7124-4.9127z" fill="#ffbb3c"/>
      <g fill="#494085">
       <path d="m-208.18 292.29-2.5917-10.374-1.574 0.37053 2.0275 8.1141c-0.62348-0.28259-1.3171-0.44463-2.0503-0.44463-2.6836 0-4.8584 2.1096-4.8584 4.7122 0 2.6026 2.1748 4.7122 4.8584 4.7122 2.6826 0 4.8574-2.1096 4.8574-4.7122 0-0.86853-0.24603-1.6797-0.66893-2.3783z"/>
       <path d="m-227.46 314.32-15.634 4.2488 2.2746 10.15c-0.73513-0.49404-1.6204-0.78256-2.573-0.78256-2.5532 0-4.6232 2.071-4.6232 4.6252 0 2.5552 2.07 4.6262 4.6232 4.6262 2.5542 0 4.6242-2.071 4.6242-4.6262 0-0.8873-0.25493-1.7143-0.6887-2.4188l-1.8032-8.0469 13.488-4.2418 1.2331 5.9937c-0.74008-0.50392-1.6343-0.79836-2.5967-0.79836-2.5542 0-4.6242 2.071-4.6242 4.6252 0 2.5552 2.07 4.6262 4.6242 4.6262 2.5532 0 4.6232-2.071 4.6232-4.6262 0-0.89718-0.25888-1.7321-0.70154-2.4416z"/>
       <path d="m-212.92 347.56-2.5927-10.374-1.573 0.37053 2.0275 8.1131c-0.62348-0.2816-1.3171-0.44464-2.0503-0.44464-2.6836 0-4.8584 2.1106-4.8584 4.7132 0 2.6026 2.1748 4.7122 4.8584 4.7122 2.6826 0 4.8574-2.1096 4.8574-4.7122 0-0.86852-0.24603-1.6797-0.66893-2.3783z"/>
      </g>
     </g>
     <g>
      <g fill="#fd6862">
       <path d="m-97.072 370.85c0.35373-0.34978 0.62546-0.77367 0.79738-1.24 0.17291-0.46736 0.2401-0.96635 0.1986-1.4624-0.0415-0.49503-0.19169-0.97623-0.43871-1.408s-0.58593-0.8043-0.99302-1.0908l-4.9157-33.179-7.0559 2.2291 7.0628 31.955c-0.43574 0.71537-0.59384 1.5661-0.44464 2.3912 0.1492 0.82406 0.59483 1.5651 1.2539 2.0819 0.65905 0.51776 1.4841 0.77565 2.32 0.72427 0.83592-0.0514 1.6244-0.40709 2.2153-1.0009z"/>
       <path d="m-120.11 316.98c5.3514 0 9.6901-4.3396 9.6901-9.6941 0-5.3534-4.3387-9.6931-9.6901-9.6931-5.3514 0-9.6891 4.3396-9.6891 9.6931 0 5.3544 4.3377 9.6941 9.6891 9.6941z"/>
      </g>
      <g fill="#494085">
       <path d="m-130.04 337.28-5.0017-5.8643c-0.14229-0.16699-0.24702-0.36164-0.3073-0.57309-0.0593-0.21046-0.0731-0.43278-0.0405-0.64917 0.0336-0.21639 0.11363-0.42388 0.23418-0.60668 0.11956-0.18378 0.27864-0.33891 0.4644-0.4555l6.5114-4.0778c0.85667-0.72328 1.9663-1.077 3.0838-0.98315 1.1175 0.0929 2.153 0.62645 2.8783 1.4821 0.72624 0.85567 1.0829 1.9643 0.99203 3.0828-0.0899 1.1185-0.61952 2.155-1.4732 2.8832l-5.0323 5.7744c-0.14327 0.165-0.32212 0.29741-0.52171 0.38732-0.19959 0.0899-0.41697 0.13636-0.63533 0.13537-0.21936-9.9e-4 -0.43575-0.0494-0.63534-0.14228-0.1986-0.0919-0.37448-0.22627-0.51677-0.39326z"/>
       <path d="m-101.21 337.68-7.6537 0.88334c-0.21837 0.0247-0.43871 3e-3 -0.64719-0.0652-0.20849-0.0682-0.40018-0.17983-0.56123-0.32805-0.16106-0.1492-0.28852-0.33002-0.3735-0.53257-0.085-0.20256-0.12549-0.42092-0.11758-0.63929l0.24702-7.6813c-0.12153-1.1156 0.20354-2.234 0.90409-3.1105s1.7202-1.4386 2.8348-1.5632c1.1146-0.12548 2.234 0.19663 3.1115 0.89521 0.87741 0.69857 1.4426 1.7173 1.571 2.8318l1.9841 7.3988c0.05632 0.21145 0.06719 0.43376 0.03063 0.64917-0.03656 0.21639-0.11956 0.42289-0.24307 0.60371-0.12351 0.18181-0.28358 0.33397-0.47131 0.4476-0.18774 0.11363-0.39721 0.18576-0.61558 0.21047z"/>
       <path d="m-133.73 306.36c3e-3 -2.7735 1.1057-5.4315 3.065-7.3928 1.9604-1.9604 4.6173-3.063 7.3889-3.067h1.9732c2.7716 4e-3 5.4295 1.1066 7.3889 3.067 1.9604 1.9613 3.0621 4.6193 3.066 7.3928v0.19762h-4.1687l-1.4218-3.9839-0.28457 3.9839h-2.155l-0.71734-2.0098-0.14327 2.0098h-13.991z"/>
      </g>
      <g fill="#ffbb3c">
       <path d="m-295.05 376.1 0.69354-26.181 13.99-25.192c0.70875-1.2786 0.88108-2.7864 0.47893-4.1924-0.40205-1.406-1.3456-2.5947-2.6232-3.3041-1.2777-0.71043-2.7848-0.88433-4.1903-0.48317-1.4054 0.40116-2.5943 1.3448-3.305 2.6224l-15.008 27.026 3e-3 0.0553 0.83276 15.753 1.1353 6.0658-0.67071 1.8467 0.30611 5.5856z"/>
       <path d="m-287.7 316.74 6.851-6.8543v-3.4267l13.702 3.4267v6.8543s10.277 20.562 6.8511 30.843c-2.0117 6.0382-2.8427 15.623-3.1846 22.506-0.0326 0.65411-0.90607 1.4041-0.93077 2.0048-0.0217 0.52862 2.2993 1.8062 2.2835 2.2844-0.0998 2.9939-1.5938 4.0482-1.5938 4.0482l-30.829 3.4267c0.21402-2.5068-0.37587-3.1105-0.30898-5.5708 0.022-0.81122 1.8978-3.3822 1.903-4.1885 5e-3 -0.75786-1.1266-1.6303-1.137-2.3832-7e-3 -0.48614-0.0167-0.97128-0.0298-1.4545-0.22765-8.3651-1.4302-16.424-3.8527-24.1z"/>
       <path d="m-240.17 373 8.4234-5.4512-20.416-17.986-10.774-26.73c-0.30235-0.75193-0.76774-1.4268-1.3616-1.9791-0.59325-0.55135-1.301-0.96536-2.0727-1.2114-0.77169-0.24702-1.5882-0.32113-2.3916-0.21639-0.80331 0.10474-1.5737 0.38535-2.2564 0.82208-1.0832 0.69364-1.8904 1.743-2.282 2.9682-0.39157 1.2262-0.34296 2.5492 0.13735 3.7428l11.562 28.682 5.4315 3.2696 2.0483 2.8042 1.7479-0.084 0.5721 1.9574 3.2676 1.4327z"/>
       <path d="m-161.79 346.24c0.77367-0.21639 1.9129-0.5138 2.318 0.44661l8.0746 17.053c0.0464 0.0978 0.0711 0.20552 0.0721 0.31322 9.9e-4 0.10869-0.0207 0.21639-0.0652 0.31619-0.0435 0.0988-0.10868 0.18773-0.18971 0.25888-0.082 0.0721-0.17686 0.12548-0.28061 0.1571l-8.1507 2.4603c-1.3645 1.5572-8.2782-18.134-8.8206-18.339-0.0484-0.11561-0.0721-0.2401-0.0672-0.36559 4e-3 -0.1245 0.0356-0.24702 0.0919-0.35867 0.0563-0.11265 0.13636-0.21047 0.23516-0.28754 0.0988-0.0771 0.21244-0.1324 0.33398-0.16105 0.33891 9.9e-4 1.1343-0.46737 1.3418-4e-3 -6e-3 0.55531 4.4187-0.86358 4.641-0.80429 0.15018-0.0346 0.28061-0.1245 0.36657-0.25196 0.087-0.12648 0.12154-0.28161 0.0988-0.43377z"/>
       <path d="m-164.22 316.31-15.635 4.2488 2.2756 10.15c-0.73612-0.49404-1.6204-0.78256-2.573-0.78256-2.5542 0-4.6242 2.071-4.6242 4.6262 0 2.5542 2.07 4.6252 4.6242 4.6252 2.5532 0 4.6232-2.071 4.6232-4.6252 0-0.88829-0.25394-1.7153-0.68771-2.4188l-1.8032-8.0469 13.487-4.2428 1.2341 5.9937c-0.74007-0.50392-1.6343-0.79837-2.5967-0.79837-2.5542 0-4.6242 2.071-4.6242 4.6252 0 2.5552 2.07 4.6262 4.6242 4.6262 2.5532 0 4.6232-2.071 4.6232-4.6262 0-0.89718-0.25987-1.7321-0.70154-2.4416z"/>
       <path d="m-178.27 290.62c-2.5275 0-4.5758 2.0493-4.5758 4.5778 0 0.71438 0.16797 1.3883 0.46045 1.991l2.6115 10.777 1.4821-0.35966-2.0147-8.3137c0.6136 0.3063 1.3043 0.48317 2.0364 0.48317 2.5265 0 4.5758-2.0503 4.5758-4.5778 0-2.5285-2.0493-4.5778-4.5758-4.5778z"/>
      </g>
      <path d="m-236.64 379.68 5.5254 2.8318c0.33199 0.16995 0.71734 0.20058 1.0711 0.086 0.35472-0.11363 0.64917-0.36461 0.81912-0.69561l7.1646-13.992c0.16896-0.33199 0.20058-0.71734 0.086-1.0721-0.11461-0.35373-0.3646-0.64818-0.69561-0.81911l-5.5253-2.8318c-0.332-0.16896-0.71636-0.19959-1.0711-0.086-0.35374 0.11462-0.64819 0.3646-0.81912 0.6966l-7.1646 13.992c-0.16896 0.332-0.19959 0.71735-0.086 1.0711 0.11462 0.35473 0.3646 0.64917 0.69561 0.81912z" fill="#494085"/>
     </g>
    </g>
    <g fill="#494085">
     <path d="m887.52 85.515q-3.4019 0-6.0969-1.1045-2.695-1.1045-4.3297-3.2694-1.5905-2.1649-1.6789-5.2133h8.0409q0.17672 1.723 1.1929 2.6508 1.0162 0.88361 2.6508 0.88361 1.6789 0 2.6508-0.75107 0.97198-0.79525 0.97198-2.1649 0-1.1487-0.79526-1.8998-0.75107-0.75107-1.8998-1.2371-1.1045-0.48599-3.181-1.1045-3.0043-0.9278-4.904-1.8556-1.8998-0.9278-3.2694-2.7392-1.3696-1.8114-1.3696-4.7273 0-4.3297 3.1368-6.7596 3.1368-2.4741 8.1734-2.4741 5.125 0 8.2618 2.4741 3.1368 2.4299 3.3577 6.8038h-8.1734q-0.0884-1.5021-1.1045-2.3416-1.0162-0.88361-2.6067-0.88361-1.3696 0-2.209 0.75107-0.83943 0.70689-0.83943 2.0765 0 1.5021 1.4138 2.3416t4.4181 1.8114q3.0043 1.0162 4.8599 1.944 1.8998 0.9278 3.2694 2.695t1.3696 4.5506q0 2.6508-1.3696 4.8157-1.3254 2.1649-3.8879 3.4461-2.5625 1.2812-6.0528 1.2812z"/>
     <path d="m914.69 85.559q-3.6228 0-6.5387-1.5463-2.8718-1.5463-4.5506-4.4181-1.6347-2.8717-1.6347-6.7155 0-3.7995 1.6789-6.6713 1.6789-2.9159 4.5948-4.4623 2.9159-1.5463 6.5387-1.5463 3.6228 0 6.5388 1.5463 2.9159 1.5463 4.5948 4.4623 1.6789 2.8717 1.6789 6.6713t-1.723 6.7155q-1.6789 2.8717-4.639 4.4181-2.9159 1.5463-6.5387 1.5463zm0-6.5387q2.1649 0 3.667-1.5905 1.5463-1.5905 1.5463-4.5506t-1.5021-4.5506q-1.458-1.5905-3.6228-1.5905-2.209 0-3.667 1.5905-1.458 1.5463-1.458 4.5506 0 2.9601 1.4138 4.5506 1.458 1.5905 3.6228 1.5905z"/>
     <path d="m955.96 60.552v24.653h-7.5549v-3.3577q-1.1487 1.6347-3.1368 2.6508-1.944 0.97198-4.3297 0.97198-2.8276 0-4.9924-1.2371-2.1649-1.2812-3.3577-3.667-1.1929-2.3858-1.1929-5.6109v-14.403h7.5107v13.387q0 2.4741 1.2812 3.8437 1.2812 1.3696 3.4461 1.3696 2.209 0 3.4903-1.3696 1.2812-1.3696 1.2812-3.8437v-13.387z"/>
     <path d="m976.41 60.287q4.3297 0 6.8922 2.8276 2.6067 2.7834 2.6067 7.6874v14.403h-7.5107v-13.387q0-2.4741-1.2812-3.8437-1.2812-1.3696-3.4461-1.3696-2.1648 0-3.4461 1.3696-1.2812 1.3696-1.2812 3.8437v13.387h-7.5549v-24.653h7.5549v3.2694q1.1487-1.6347 3.0926-2.5625 1.944-0.97198 4.3739-0.97198z"/>
     <path d="m989.67 72.835q0-3.7995 1.4138-6.6713 1.458-2.8717 3.9321-4.4181 2.4741-1.5463 5.5226-1.5463 2.4299 0 4.418 1.0162 2.0323 1.0162 3.181 2.7392v-11.443h7.5549v32.694h-7.5549v-3.5345q-1.0603 1.7672-3.0484 2.8276-1.944 1.0603-4.5506 1.0603-3.0485 0-5.5226-1.5463-2.4741-1.5905-3.9321-4.4622-1.4138-2.9159-1.4138-6.7155zm18.468 0.04418q0-2.8276-1.5905-4.4622-1.5463-1.6347-3.7995-1.6347t-3.8437 1.6347q-1.5463 1.5905-1.5463 4.4181 0 2.8276 1.5463 4.5064 1.5905 1.6347 3.8437 1.6347t3.7995-1.6347q1.5905-1.6347 1.5905-4.4623z"/>
     <path d="m1041.8 85.515q-3.4019 0-6.0969-1.1045-2.6951-1.1045-4.3298-3.2694-1.5905-2.1649-1.6788-5.2133h8.0409q0.1767 1.723 1.1928 2.6508 1.0162 0.88361 2.6509 0.88361 1.6789 0 2.6508-0.75107 0.972-0.79525 0.972-2.1649 0-1.1487-0.7953-1.8998-0.751-0.75107-1.8997-1.2371-1.1045-0.48599-3.181-1.1045-3.0043-0.9278-4.9041-1.8556-1.8998-0.9278-3.2694-2.7392-1.3696-1.8114-1.3696-4.7273 0-4.3297 3.1369-6.7596 3.1368-2.4741 8.1734-2.4741 5.125 0 8.2618 2.4741 3.1368 2.4299 3.3577 6.8038h-8.1734q-0.088-1.5021-1.1045-2.3416-1.0162-0.88361-2.6067-0.88361-1.3696 0-2.209 0.75107-0.8395 0.70689-0.8395 2.0765 0 1.5021 1.4138 2.3416t4.4181 1.8114q3.0043 1.0162 4.8599 1.944 1.8997 0.9278 3.2693 2.695t1.3696 4.5506q0 2.6508-1.3696 4.8157-1.3254 2.1649-3.8879 3.4461-2.5624 1.2812-6.0527 1.2812z"/>
     <path d="m1072.9 60.287q4.2413 0 6.8038 2.8276 2.5625 2.7834 2.5625 7.6874v14.403h-7.5107v-13.387q0-2.4741-1.2813-3.8437-1.2812-1.3696-3.446-1.3696-2.1649 0-3.4461 1.3696-1.2813 1.3696-1.2813 3.8437v13.387h-7.5549v-32.694h7.5549v11.354q1.1487-1.6347 3.1368-2.6067 1.9882-0.97198 4.4623-0.97198z"/>
     <path d="m1086 72.835q0-3.7995 1.4138-6.6713 1.458-2.8717 3.9321-4.4181 2.4741-1.5463 5.5226-1.5463 2.6067 0 4.5506 1.0603 1.9881 1.0603 3.0485 2.7834v-3.4903h7.5549v24.653h-7.5549v-3.4903q-1.1045 1.723-3.0927 2.7834-1.9439 1.0603-4.5506 1.0603-3.0043 0-5.4784-1.5463-2.4741-1.5905-3.9321-4.4622-1.4138-2.9159-1.4138-6.7155zm18.468 0.04418q0-2.8276-1.5905-4.4622-1.5464-1.6347-3.7996-1.6347t-3.8437 1.6347q-1.5463 1.5905-1.5463 4.4181 0 2.8276 1.5463 4.5064 1.5905 1.6347 3.8437 1.6347t3.7996-1.6347q1.5905-1.6347 1.5905-4.4623z"/>
     <path d="m1125 64.661q1.3255-2.0323 3.3136-3.181 1.9881-1.1929 4.4181-1.1929v7.9967h-2.0765q-2.8276 0-4.2414 1.2371-1.4138 1.1929-1.4138 4.2413v11.443h-7.5549v-24.653h7.5549z"/>
     <path d="m1159.6 72.481q0 1.0603-0.1325 2.209h-17.098q0.1767 2.2974 1.458 3.5345 1.3254 1.1929 3.2252 1.1929 2.8275 0 3.9321-2.3858h8.0408q-0.6185 2.4299-2.2532 4.3739-1.5905 1.944-4.0204 3.0485-2.43 1.1045-5.4342 1.1045-3.6229 0-6.4504-1.5463-2.8276-1.5463-4.4181-4.4181-1.5905-2.8717-1.5905-6.7155t1.5463-6.7155q1.5905-2.8717 4.4181-4.4181 2.8276-1.5463 6.4946-1.5463 3.5786 0 6.362 1.5021 2.7834 1.5021 4.3297 4.2855 1.5905 2.7834 1.5905 6.4946zm-7.7316-1.9881q0-1.944-1.3254-3.0926-1.3255-1.1487-3.3136-1.1487-1.8998 0-3.2252 1.1045-1.2812 1.1045-1.5905 3.1368z"/>
    </g>
   </g>
  </g>
 </g>
</svg>
